<svg width="176" height="24" viewBox="0 0 176 24" fill="none" xmlns="http://www.w3.org/2000/svg">
<path d="M64.7656 1.90088V22.6465H60.0238V10.5844L54.6596 19.3865H54.1261L48.7619 10.5844V22.6465H44.02V1.90088H48.7619L54.3928 11.1179L60.0238 1.90088H64.7656Z" fill="black"/>
<path d="M80.8675 20.809C79.3462 22.3106 77.489 23.0614 75.2959 23.0614C73.1028 23.0614 71.2455 22.3106 69.7242 20.809C68.2029 19.2877 67.4422 17.4305 67.4422 15.2373C67.4422 13.0442 68.2029 11.1969 69.7242 9.6953C71.2455 8.17396 73.1028 7.41329 75.2959 7.41329C77.489 7.41329 79.3462 8.17396 80.8675 9.6953C82.3889 11.1969 83.1496 13.0442 83.1496 15.2373C83.1496 17.4305 82.3889 19.2877 80.8675 20.809ZM72.8657 17.7565C73.5177 18.4085 74.3277 18.7345 75.2959 18.7345C76.264 18.7345 77.0741 18.4085 77.7261 17.7565C78.3781 17.1044 78.7041 16.2647 78.7041 15.2373C78.7041 14.2099 78.3781 13.3702 77.7261 12.7182C77.0741 12.0662 76.264 11.7402 75.2959 11.7402C74.3277 11.7402 73.5177 12.0662 72.8657 12.7182C72.2137 13.3702 71.8877 14.2099 71.8877 15.2373C71.8877 16.2647 72.2137 17.1044 72.8657 17.7565Z" fill="black"/>
<path d="M96.3332 7.8282H99.5932V22.6465H95.2663V15.2373L88.9241 22.6465H85.664V7.8282H89.991V15.2373L96.3332 7.8282Z" fill="black"/>
<path d="M124.194 7.8282V22.6465H119.748V11.9773H114.71V22.6465H110.265V7.8282H124.194Z" fill="black"/>
<path d="M140.348 7.8282V22.6465H135.903V12.0959H132.702V16.5117C132.702 18.7641 132.139 20.4139 131.013 21.461C129.906 22.5082 128.276 22.9034 126.123 22.6465V18.4974C126.814 18.6949 127.338 18.5962 127.693 18.201C128.069 17.8059 128.256 17.144 128.256 16.2154V7.8282H140.348Z" fill="black"/>
<path d="M154.364 7.8282H158.809V22.6465H154.364V21.2536C153.317 22.4588 151.845 23.0614 149.948 23.0614C147.992 23.0614 146.323 22.3106 144.94 20.809C143.556 19.2877 142.865 17.4305 142.865 15.2373C142.865 13.0442 143.556 11.1969 144.94 9.6953C146.323 8.17396 147.992 7.41329 149.948 7.41329C151.845 7.41329 153.317 8.0159 154.364 9.22112V7.8282ZM148.288 17.875C148.94 18.527 149.79 18.853 150.837 18.853C151.884 18.853 152.734 18.527 153.386 17.875C154.038 17.223 154.364 16.3438 154.364 15.2373C154.364 14.1309 154.038 13.2517 153.386 12.5997C152.734 11.9477 151.884 11.6217 150.837 11.6217C149.79 11.6217 148.94 11.9477 148.288 12.5997C147.636 13.2517 147.31 14.1309 147.31 15.2373C147.31 16.3438 147.636 17.223 148.288 17.875Z" fill="black"/>
<path d="M171.555 7.8282H176V22.6465H171.555V17.3119H166.516V22.6465H162.071V7.8282H166.516V13.1628H171.555V7.8282Z" fill="black"/>
<path d="M88.021 2.15109V6.00385L97.6421 3.85276V0L88.021 2.15109Z" fill="#FF0000"/>
<rect y="1.97754" width="5.50744" height="20.6671" fill="black"/>
<rect x="29.2163" y="1.97754" width="5.50744" height="20.6671" fill="black"/>
<path fill-rule="evenodd" clip-rule="evenodd" d="M27.5542 4.23524C29.884 6.79976 29.6938 10.7674 27.1292 13.0972L16.858 22.4285L7.39385 12.8672C4.9564 10.4047 4.97667 6.43258 7.43913 3.99513C9.90159 1.55768 13.8737 1.57795 16.3112 4.04041L17.3186 5.05817L18.6922 3.81031C21.2567 1.48048 25.2243 1.67073 27.5542 4.23524Z" fill="#FF0000"/>
</svg>
